<svg width="28" height="28" viewBox="0 0 28 28" fill="none" xmlns="http://www.w3.org/2000/svg">
<path d="M23.3333 7.00016H18.6667V5.8335C18.6667 4.90524 18.2979 4.015 17.6415 3.35862C16.9852 2.70225 16.0949 2.3335 15.1667 2.3335H12.8333C11.9051 2.3335 11.0148 2.70225 10.3585 3.35862C9.70208 4.015 9.33333 4.90524 9.33333 5.8335V7.00016H4.66667C4.35725 7.00016 4.0605 7.12308 3.84171 7.34187C3.62292 7.56066 3.5 7.85741 3.5 8.16683C3.5 8.47625 3.62292 8.77299 3.84171 8.99179C4.0605 9.21058 4.35725 9.3335 4.66667 9.3335H5.83333V22.1668C5.83333 23.0951 6.20208 23.9853 6.85846 24.6417C7.51484 25.2981 8.40508 25.6668 9.33333 25.6668H18.6667C19.5949 25.6668 20.4852 25.2981 21.1415 24.6417C21.7979 23.9853 22.1667 23.0951 22.1667 22.1668V9.3335H23.3333C23.6428 9.3335 23.9395 9.21058 24.1583 8.99179C24.3771 8.77299 24.5 8.47625 24.5 8.16683C24.5 7.85741 24.3771 7.56066 24.1583 7.34187C23.9395 7.12308 23.6428 7.00016 23.3333 7.00016ZM11.6667 5.8335C11.6667 5.52408 11.7896 5.22733 12.0084 5.00854C12.2272 4.78975 12.5239 4.66683 12.8333 4.66683H15.1667C15.4761 4.66683 15.7728 4.78975 15.9916 5.00854C16.2104 5.22733 16.3333 5.52408 16.3333 5.8335V7.00016H11.6667V5.8335ZM19.8333 22.1668C19.8333 22.4762 19.7104 22.773 19.4916 22.9918C19.2728 23.2106 18.9761 23.3335 18.6667 23.3335H9.33333C9.02391 23.3335 8.72717 23.2106 8.50838 22.9918C8.28958 22.773 8.16667 22.4762 8.16667 22.1668V9.3335H19.8333V22.1668Z" fill="#000000"/>
</svg>
